#!OML:ASF F:\VICON\USERDATA\INSTALL\rory3\rory3.ASF
:FULLY-SPECIFIED
:DEGREES
925
root -4.15402 18.7499 -5.13266 -2.15291 -3.12409 8.08585
lowerback 16.9192 9.06576 0.797387
upperback 6.6529 11.9555 -1.72898
thorax -1.64743 6.00645 -4.33392
lowerneck -11.5579 -2.53632 -7.52474
upperneck 14.1685 -2.4537 2.50093
head 6.33892 -1.38055 1.81192
rclavicle 7.15625e-015 -4.77083e-015
rhumerus 32.534 -22.956 -83.7177
rradius 142.493
rwrist -43.7745
rhand -23.498 4.30368
rfingers 7.12502
rthumb 2.96216 -25.6555
lclavicle 7.15625e-015 -4.77083e-015
lhumerus -39.6586 21.5447 35.5476
lradius 87.1649
lwrist 24.8229
lhand -34.0659 12.5671
lfingers 7.12502
lthumb -7.24316 42.4231
rfemur -11.232 7.07105 17.5909
rtibia 32.7934
rfoot -20.118 -19.2686
rtoes 6.0987
lfemur -66.5012 4.79401 -14.849
ltibia 97.2593
lfoot 6.0879 2.57123
ltoes -6.88749
926
root -4.15413 18.747 -5.11212 -2.2225 -3.3 7.84794
lowerback 16.6434 8.89083 0.727094
upperback 6.40608 11.717 -1.79416
thorax -1.78672 5.8807 -4.307
lowerneck -11.8654 -2.52538 -7.3914
upperneck 14.3701 -2.44033 2.50097
head 6.45325 -1.36843 1.78934
rclavicle 5.24792e-014 -1.82882e-014
rhumerus 31.6686 -22.6618 -82.5218
rradius 142.066
rwrist -43.2307
rhand -23.2763 4.81397
rfingers 7.12502
rthumb 3.17622 -25.1421
lclavicle 5.24792e-014 -1.82882e-014
lhumerus -39.303 21.3309 35.8314
lradius 88.5606
lwrist 25.3022
lhand -33.9359 12.4088
lfingers 7.12502
lthumb -7.11765 42.2691
rfemur -10.9349 7.24811 17.8733
rtibia 32.5548
rfoot -20.5243 -19.1149
rtoes 8.05666
lfemur -64.3717 4.98764 -14.4086
ltibia 95.4217
lfoot 5.91407 3.50105
ltoes -6.92359
927
root -4.1336 18.7731 -5.04534 -2.57737 -4.36727 7.69889
lowerback 16.0335 8.98906 0.733329
upperback 6.34334 11.8557 -1.87069
thorax -1.50924 5.95832 -4.31023
lowerneck -12.1808 -2.47046 -7.31218
upperneck 14.611 -2.36028 2.5187
head 6.57946 -1.32594 1.78771
rclavicle 6.04305e-014 -3.26007e-014
rhumerus 30.768 -22.3445 -81.3202
rradius 141.564
rwrist -42.6356
rhand -22.465 6.73836
rfingers 7.12502
rthumb 3.95972 -23.2046
lclavicle 6.04305e-014 -3.26007e-014
lhumerus -39.0702 21.028 36.0743
lradius 90.0868
lwrist 25.738
lhand -33.9736 12.5424
lfingers 7.12502
lthumb -7.15412 42.4015
rfemur -10.3236 7.86151 17.9917
rtibia 32.3468
rfoot -20.7944 -18.4956
rtoes 9.19967
lfemur -61.4182 5.84 -14.0775
ltibia 93.5221
lfoot 5.25547 4.58286
ltoes -6.83168
928
root -4.12003 18.7682 -5.00114 -2.66077 -4.97854 7.29362
lowerback 15.4236 8.92894 0.870081
upperback 6.13882 11.807 -1.86171
thorax -1.38847 5.93683 -4.28081
lowerneck -12.2886 -2.40612 -7.04142
upperneck 14.7044 -2.29146 2.3624
head 6.619 -1.29179 1.69911
rclavicle 1.17283e-013 -2.54444e-014
rhumerus 29.7795 -21.9532 -80.0568
rradius 140.935
rwrist -41.7125
rhand -21.7911 8.22288
rfingers 7.12502
rthumb 4.61053 -21.7069
lclavicle 1.17283e-013 -2.54444e-014
lhumerus -38.8629 20.7392 36.286
lradius 91.6314
lwrist 26.3836
lhand -33.8696 12.3933
lfingers 7.12502
lthumb -7.05366 42.2558
rfemur -10.0315 8.14136 18.469
rtibia 32.1436
rfoot -20.6076 -18.4882
rtoes 7.19258
lfemur -59.1496 6.40299 -13.4751
ltibia 91.6796
lfoot 4.76753 5.63872
ltoes -6.32898
929
root -4.11943 18.7294 -5.00532 -2.48482 -4.64923 6.72061
lowerback 15.3087 8.54027 1.08535
upperback 5.6591 11.3268 -1.87045
thorax -1.83144 5.68292 -4.36597
lowerneck -12.1756 -2.30828 -6.76711
upperneck 14.6555 -2.23356 2.43866
head 6.57733 -1.2428 1.68532
rclavicle -1.92225e-013 2.94201e-014
rhumerus 28.6211 -21.451 -78.7831
rradius 140.25
rwrist -40.7965
rhand -21.5794 9.5446
rfingers 7.12502
rthumb 4.81486 -20.3807
lclavicle -1.92225e-013 2.94201e-014
lhumerus -38.5849 20.5278 36.3211
lradius 93.0988
lwrist 26.9295
lhand -33.3167 12.2063
lfingers 7.12502
lthumb -6.51993 42.0859
rfemur -10.0496 7.94901 19.1757
rtibia 31.9486
rfoot -20.4408 -18.9938
rtoes 5.53747
lfemur -57.7405 6.23605 -12.7153
ltibia 89.8911
lfoot 4.54125 6.66842
ltoes -6.54872
930
root -4.10142 18.7258 -4.96083 -2.6172 -5.11004 6.41862
lowerback 14.9013 8.42182 1.27514
upperback 5.37469 11.2 -1.98311
thorax -1.86949 5.61998 -4.52336
lowerneck -11.9409 -2.23742 -6.80715
upperneck 14.4683 -2.22475 2.90485
head 6.48061 -1.20222 1.84412
rclavicle -3.33958e-014 1.59028e-014
rhumerus 27.3396 -20.9224 -77.4471
rradius 139.643
rwrist -39.9363
rhand -21.6203 10.1707
rfingers 7.12502
rthumb 4.77544 -19.7555
lclavicle -3.33958e-014 1.59028e-014
lhumerus -38.1698 20.2864 36.3812
lradius 94.5286
lwrist 27.2996
lhand -33.048 12.4579
lfingers 7.12502
lthumb -6.26051 42.3453
rfemur -9.69163 8.10938 19.4939
rtibia 31.7959
rfoot -20.4014 -18.8643
rtoes 4.97556
lfemur -55.4088 6.55129 -12.2567
ltibia 87.9897
lfoot 3.81559 7.88454
ltoes -6.79176
931
root -4.08279 18.7228 -4.91739 -2.65541 -5.4557 6.22255
lowerback 14.3787 8.3013 1.29894
upperback 5.15613 11.0484 -2.04023
thorax -1.82199 5.54467 -4.50989
lowerneck -11.9924 -2.2051 -7.02107
upperneck 14.3922 -2.21256 3.3586
head 6.47111 -1.1703 2.02586
rclavicle -7.31528e-014 2.62396e-014
rhumerus 26.2196 -20.4028 -75.9516
rradius 139.041
rwrist -39.1229
rhand -21.8848 9.92584
rfingers 7.12502
rthumb 4.52004 -20.0059
lclavicle -7.31528e-014 2.62396e-014
lhumerus -37.6175 20.1647 36.6163
lradius 95.9563
lwrist 27.7445
lhand -32.8741 12.6641
lfingers 7.12502
lthumb -6.09269 42.5565
rfemur -9.46842 8.19948 19.661
rtibia 31.7134
rfoot -20.3473 -18.6739
rtoes 4.76901
lfemur -53.2164 6.6883 -11.9567
ltibia 86.0427
lfoot 3.15223 9.1543
ltoes -6.14804
932
root -4.06471 18.7217 -4.87728 -2.7167 -5.80294 5.9838
lowerback 13.8969 8.17645 1.3354
upperback 4.9917 10.8932 -2.04118
thorax -1.74709 5.46791 -4.44787
lowerneck -12.2048 -2.17956 -7.19056
upperneck 14.3709 -2.18521 3.68513
head 6.50425 -1.13815 2.16024
rclavicle -6.35117e-014 3.33958e-014
rhumerus 25.1338 -19.8615 -74.4016
rradius 138.434
rwrist -38.3157
rhand -22.2691 9.80784
rfingers 7.12502
rthumb 4.14891 -20.1315
lclavicle -6.35117e-014 3.33958e-014
lhumerus -36.9894 20.1745 36.9132
lradius 97.3812
lwrist 28.2586
lhand -32.6772 12.7502
lfingers 7.12502
lthumb -5.90256 42.648
rfemur -9.17749 8.37902 19.8756
rtibia 31.53
rfoot -20.377 -18.5082
rtoes 5.52489
lfemur -51.0093 6.86943 -11.6329
ltibia 84.0601
lfoot 2.64075 10.2716
ltoes -5.47826
933
root -4.04618 18.7194 -4.83351 -2.88417 -6.1782 5.67145
lowerback 13.4758 8.03215 1.46578
upperback 4.84599 10.7237 -2.0281
thorax -1.67026 5.38511 -4.42823
lowerneck -12.3311 -2.17115 -7.21247
upperneck 14.3363 -2.19076 3.86482
head 6.51694 -1.12624 2.22054
rclavicle 1.01678e-013 -1.70955e-014
rhumerus 23.965 -19.2433 -72.9244
rradius 137.868
rwrist -37.4992
rhand -22.6011 10.0008
rfingers 7.12502
rthumb 3.82834 -19.9446
lclavicle 1.01678e-013 -1.70955e-014
lhumerus -36.3115 20.2754 37.1411
lradius 98.7148
lwrist 28.7381
lhand -32.3242 12.5493
lfingers 7.12502
lthumb -5.56173 42.4563
rfemur -8.75309 8.58452 20.1914
rtibia 31.3796
rfoot -20.4628 -18.3268
rtoes 5.89653
lfemur -48.6637 7.07933 -11.1939
ltibia 82.0617
lfoot 2.26842 11.321
ltoes -4.10059
934
root -4.02781 18.7138 -4.78991 -2.97423 -6.46907 5.26769
lowerback 13.0607 7.87623 1.69674
upperback 4.60154 10.5501 -2.02049
thorax -1.68109 5.2977 -4.47885
lowerneck -12.3631 -2.19713 -7.18565
upperneck 14.4142 -2.26062 4.04355
head 6.55257 -1.14444 2.26765
rclavicle 7.42461e-014 -1.59028e-014
rhumerus 22.6268 -18.5766 -71.4052
rradius 137.288
rwrist -36.4926
rhand -22.8277 9.79276
rfingers 7.12502
rthumb 3.60944 -20.1564
lclavicle 7.42461e-014 -1.59028e-014
lhumerus -35.5769 20.2269 37.3094
lradius 100.101
lwrist 29.2257
lhand -32.0781 12.6351
lfingers 7.12502
lthumb -5.3241 42.5482
rfemur -8.40163 8.70203 20.6081
rtibia 31.2476
rfoot -20.5267 -18.1748
rtoes 5.4224
lfemur -46.4497 7.16768 -10.6691
ltibia 80.0464
lfoot 1.48987 12.6532
ltoes -4.5059
935
root -4.00978 18.7101 -4.75196 -2.98256 -6.64229 5.03484
lowerback 12.6426 7.73342 1.75004
upperback 4.32565 10.3686 -2.06317
thorax -1.74584 5.20326 -4.491
lowerneck -12.4306 -2.23814 -7.15724
upperneck 14.5399 -2.35245 4.23772
head 6.61122 -1.17167 2.31757
rclavicle -2.08724e-014 1.35174e-014
rhumerus 21.1736 -17.8732 -69.7432
rradius 136.578
rwrist -35.2842
rhand -23.2621 9.56353
rfingers 7.12502
rthumb 3.19001 -20.3924
lclavicle -2.08724e-014 1.35174e-014
lhumerus -34.6971 20.1019 37.5264
lradius 101.494
lwrist 29.7728
lhand -32.1228 12.6287
lfingers 7.12502
lthumb -5.36731 42.5407
rfemur -8.1607 8.73296 20.8179
rtibia 31.1074
rfoot -20.5381 -18.0838
rtoes 5.10591
lfemur -44.4089 7.0895 -10.3781
ltibia 77.993
lfoot 0.255203 14.0893
ltoes -6.38318
936
root -3.99118 18.7033 -4.71784 -3.02498 -6.80936 4.80548
lowerback 12.427 7.58662 1.75941
upperback 3.99443 10.1755 -2.08596
thorax -1.98894 5.09633 -4.4963
lowerneck -12.5922 -2.27055 -7.1077
upperneck 14.7664 -2.42214 4.36974
head 6.71656 -1.19168 2.34615
rclavicle -3.49861e-014 1.59028e-015
rhumerus 19.7846 -17.0509 -68.0989
rradius 135.755
rwrist -34.1088
rhand -23.6281 9.41251
rfingers 7.12502
rthumb 2.83652 -20.5484
lclavicle -3.49861e-014 1.59028e-015
lhumerus -33.9911 19.8293 37.6064
lradius 102.989
lwrist 30.3035
lhand -32.1498 12.4759
lfingers 7.12502
lthumb -5.39335 42.3872
rfemur -7.89684 8.77255 21.0305
rtibia 30.9603
rfoot -20.496 -18.0026
rtoes 5.02175
lfemur -42.4031 7.02672 -10.0891
ltibia 75.9589
lfoot -0.71015 15.052
ltoes -6.00119
937
root -3.97137 18.6979 -4.68165 -3.09251 -6.92733 4.45646
lowerback 12.3331 7.37392 1.85161
upperback 3.57823 9.90677 -2.04736
thorax -2.38973 4.94561 -4.50045
lowerneck -12.5621 -2.21862 -7.0663
upperneck 14.9347 -2.38504 4.48258
head 6.76354 -1.1637 2.38095
rclavicle -2.75814e-014 9.14409e-015
rhumerus 18.373 -16.0344 -66.5476
rradius 134.935
rwrist -33.083
rhand -23.5979 8.76334
rfingers 7.12502
rthumb 2.86567 -21.1972
lclavicle -2.75814e-014 9.14409e-015
lhumerus -33.6542 19.431 37.4097
lradius 104.647
lwrist 30.763
lhand -31.9532 12.3965
lfingers 7.12502
lthumb -5.20351 42.3126
rfemur -7.55214 8.82361 21.3843
rtibia 30.7926
rfoot -20.5304 -17.9585
rtoes 5.46626
lfemur -40.405 6.99177 -9.67732
ltibia 73.9502
lfoot -1.3338 15.5566
ltoes -4.67376
938
root -3.94807 18.6944 -4.64454 -3.0965 -6.91202 4.09657
lowerback 11.993 7.09315 1.9841
upperback 3.2721 9.55418 -1.96824
thorax -2.54977 4.76134 -4.42731
lowerneck -12.4943 -2.11145 -7.13801
upperneck 14.973 -2.25389 4.61544
head 6.75801 -1.09473 2.44933
rclavicle 1.42628e-013 -3.22031e-014
rhumerus 16.9993 -14.8892 -64.9811
rradius 134.172
rwrist -32.0074
rhand -23.6706 8.11766
rfingers 7.12502
rthumb 2.7955 -21.8438
lclavicle 1.42628e-013 -3.22031e-014
lhumerus -33.0239 19.338 37.4596
lradius 106.144
lwrist 31.0297
lhand -31.9621 12.4829
lfingers 7.12502
lthumb -5.21209 42.3988
rfemur -7.25425 8.80847 21.7116
rtibia 30.5983
rfoot -20.5975 -17.9205
rtoes 5.863
lfemur -38.5423 6.77642 -9.29437
ltibia 71.9798
lfoot -2.05511 16.0248
ltoes -3.69479
939
root -3.92208 18.6873 -4.60714 -3.13209 -6.93382 3.69376
lowerback 11.6519 6.86041 2.23197
upperback 3.02298 9.27748 -1.90261
thorax -2.62149 4.61827 -4.43424
lowerneck -12.4659 -2.07949 -7.19791
upperneck 14.9579 -2.23072 4.78828
head 6.74896 -1.07289 2.51772
rclavicle -1.73191e-014 1.05356e-014
rhumerus 15.544 -13.8327 -63.376
rradius 133.448
rwrist -30.94
rhand -23.6418 8.22148
rfingers 7.12502
rthumb 2.82325 -21.7396
lclavicle -1.73191e-014 1.05356e-014
lhumerus -31.8384 19.2066 37.7955
lradius 107.275
lwrist 31.1788
lhand -32.365 12.4095
lfingers 7.12502
lthumb -5.60117 42.3154
rfemur -6.90319 8.88392 22.0943
rtibia 30.3688
rfoot -20.6527 -17.9745
rtoes 5.47856
lfemur -36.6929 6.50141 -8.86221
ltibia 70.058
lfoot -2.74028 16.4162
ltoes -2.71492
